<svg width="101" height="48" viewBox="0 0 101 48" xmlns="http://www.w3.org/2000/svg" role="img" aria-label="Registration logos">
  <g fill="none" fill-rule="evenodd">
    <g transform="translate(0 0)">
      <path fill="#1964B6" fill-rule="nonzero" d="M33.924 0L14.052 0 0 14.046 0 33.915 14.052 47.972 33.924 47.972 47.977 33.915 47.977 14.046 33.924 0"/>
      <path fill="#FFF" fill-rule="nonzero" d="M39.138 30.254L30.264 39.13 17.713 39.13 8.837 30.254 8.838 17.707 17.713 8.832 30.264 8.832 39.138 17.707 39.138 30.254"/>
      <path fill="#000" d="M23.451 17.675L24.684 17.675 24.684 19.641 23.451 19.641z"/>
      <path fill="#000" fill-rule="nonzero" d="M11.491 29.038L36.478 29.038 36.478 28.451 11.491 28.451z"/>
      <path fill="#000" d="M11.61 17.675v1.596h2.838v8.235h2.044V19.27h2.5v4.987c.084 2.411 1.823 3.476 4.222 3.476 2.398 0 4.138-1.065 4.205-3.476v-5.226l3.159 8.474h2.144l3.7-9.831H34.26l-2.585 7.702-2.55-7.702h-3.732v6.518c-.152 1.314-.812 1.792-2.18 1.868-1.367-.076-2.043-.554-2.178-1.868v-6.518H11.61"/>
      <path fill="#000" d="M21.761 17.675L22.943 17.675 22.943 19.641 21.761 19.641z"/>
      <path fill="#000" fill-rule="nonzero" d="M18.318 34.969l.807-.098c.092.63.392.945.9.945.252 0 .451-.065.596-.195.144-.13.216-.283.216-.478 0-.109-.025-.207-.075-.283-.051-.087-.128-.152-.23-.206-.104-.044-.355-.13-.751-.25-.356-.109-.617-.228-.783-.358-.165-.12-.297-.283-.395-.5-.097-.196-.146-.424-.146-.652 0-.282.063-.532.188-.75.126-.217.298-.39.52-.5.22-.108.493-.162.818-.162.488 0 .87.13 1.143.39.274.262.42.642.435 1.13l-.835.044c-.037-.26-.116-.456-.238-.565-.122-.098-.295-.152-.52-.152-.226 0-.399.044-.52.13-.122.098-.184.218-.184.348 0 .141.054.25.163.348.108.098.36.195.757.315.42.12.723.25.91.38.188.141.332.315.43.521.098.218.148.468.148.772 0 .445-.134.804-.403 1.108-.27.293-.69.445-1.262.445-1.011 0-1.575-.576-1.69-1.727M21.935 31.558h.96v2.737c0 .424.012.696.036.826.043.228.145.391.306.521.16.12.373.174.637.174.223 0 .405-.043.547-.13.14-.076.238-.196.29-.359.05-.152.077-.478.077-.977v-2.792h.96v2.65c0 .685-.041 1.174-.125 1.478-.083.304-.271.543-.565.728-.293.184-.679.282-1.159.282-.498 0-.887-.076-1.166-.228-.28-.163-.483-.38-.609-.663-.126-.271-.189-.793-.189-1.553v-2.694M27.328 32.405c.334 0 .56.022.676.055.156.032.288.119.397.239.109.13.189.293.24.51.051.217.077.51.077.89 0 .36-.025.653-.075.87-.05.228-.114.391-.191.489-.076.098-.175.184-.295.228-.12.054-.314.076-.582.076h-.624v-3.357h.377zm-1.213 4.204h1.568c.337 0 .613-.043.827-.14.215-.099.397-.24.548-.425.151-.184.276-.445.375-.77.099-.316.148-.696.148-1.142 0-.478-.047-.88-.14-1.205-.095-.326-.224-.598-.39-.804-.164-.207-.345-.348-.541-.435-.196-.087-.486-.13-.872-.13h-1.523v5.051"/>
      <path fill="#000" d="M23.247 31.558L23.712 31.558 23.712 32.34 23.247 32.34zM23.972 31.558L24.437 31.558 24.437 32.34 23.972 32.34z"/>
    </g>
    <g fill="#008B4D" fill-rule="evenodd" transform="translate(58 0)">
      <path d="M0 48h2.924c3.018 0 5.093-2.435 5.093-5.455 0-3.116-2.075-5.454-5.093-5.454H0V48zm2.186-8.727h.356c2.222 0 3.289 1.18 3.289 3.636 0 2.162-.89 3.636-3.289 3.636h-.356v-7.272z"/>
      <path fill-rule="nonzero" d="M14.576 38.942L14.576 37.091 9.475 37.091 9.475 48 14.576 48 14.576 46.149 11.41 46.149 11.41 43.13 14.488 43.13 14.488 41.279 11.41 41.279 11.41 38.942z"/>
      <path d="M33.525 48l3.864-10.245c.092-.474.552-.664.92-.664s.828.19.92.664L43 48h-2.116l-.828-2.277H36.47L35.641 48h-2.116zm3.644-4.364L38.303 40l1.053 3.636h-2.187z"/>
      <path fill-rule="nonzero" d="M18.814 41.669L18.814 41.669 18.814 37.091 16.763 37.091 16.763 48 18.814 48 18.814 43.032 18.814 43.032 22.169 48 24.78 48 20.585 42.058 24.593 37.091 22.076 37.091zM29.611 39.273h-1.187v2.909h1.187c.972 0 1.728-.617 1.728-1.499 0-.793-.756-1.41-1.728-1.41zm.942 4.246L33.525 48h-2.589l-2.589-4.383V48h-2.11V37.09h3.548c1.822 0 3.26 1.462 3.26 3.215 0 1.559-1.054 2.922-2.492 3.214zM14.526.138l17.667 10.124c1.302.736 2.79 2.393 2.79 4.602 0 2.392-1.488 3.865-2.79 4.785L8.017 33.455v-6.259L29.59 14.864 18.06 8.237v9.388l-5.58 3.129V1.242c0-.368.372-.92.744-1.104.372-.184.93-.184 1.302 0z"/>
    </g>
  </g>
</svg>
